<svg width="230" height="5" viewBox="0 0 230 5" fill="none" xmlns="http://www.w3.org/2000/svg">
    <path d="M0 1C2.8357 1 2.8357 4 5.60976 4C8.44546 4 8.44546 1 11.2195 1C14.0552 1 14.0552 4 16.8293 4C19.665 4 19.665 1 22.439 1C25.2747 1 25.2747 4 28.0488 4C30.8845 4 30.8845 1 33.6585 1C36.4942 1 36.4942 4 39.2683 4C42.104 4 42.104 1 44.8781 1C47.7138 1 47.7137 4 50.4878 4C53.3235 4 53.3235 1 56.0976 1C58.9333 1 58.9333 4 61.7073 4C64.543 4 64.543 1 67.3171 1C70.1528 1 70.1528 4 72.9268 4C75.7625 4 75.7625 1 78.5366 1C81.3723 1 81.3723 4 84.1463 4C86.982 4 86.982 1 89.7561 1C92.5918 1 92.5918 4 95.3659 4C98.2016 4 98.2016 1 100.976 1C103.811 1 103.811 4 106.585 4C109.421 4 109.421 1 112.195 1C115.031 1 115.031 4 117.805 4C120.641 4 120.641 1 123.415 1C126.25 1 126.25 4 129.024 4C131.86 4 131.86 1 134.634 1C137.47 1 137.47 4 140.244 4C143.08 4 143.08 1 145.854 1C148.689 1 148.689 4 151.463 4C154.299 4 154.299 1 157.073 1C159.909 1 159.909 4 162.683 4C165.519 4 165.519 1 168.293 1C171.128 1 171.128 4 173.902 4C176.738 4 176.738 1 179.512 1C182.348 1 182.348 4 185.122 4C187.958 4 187.958 1 190.732 1C193.567 1 193.567 4 196.341 4C199.177 4 199.177 1 201.951 1C204.787 1 204.787 4 207.561 4C210.397 4 210.397 1 213.171 1C216.006 1 216.006 4 218.781 4C221.616 4 221.616 1 224.39 1C227.226 1 227.226 4 230 4" stroke="#2A2E37" stroke-miterlimit="10" stroke-linejoin="round"/>
</svg>
